<svg width="274" height="274" viewBox="0 0 274 274" fill="none" xmlns="http://www.w3.org/2000/svg">
<path d="M137 159.833L239.75 102.75L137 45.6666L34.25 102.75L137 159.833Z" stroke="black"/>
<path d="M137 159.833L207.327 120.766C216.58 144.262 219.206 169.848 214.919 194.734C185.961 197.545 158.66 209.537 137 228.961C115.343 209.539 88.0463 197.547 59.0926 194.734C54.8023 169.848 57.4285 144.261 66.6847 120.766L137 159.833Z" stroke="black"/>
<path d="M137 159.833L239.75 102.75L137 45.6666L34.25 102.75L137 159.833ZM137 159.833L207.327 120.765C216.58 144.262 219.206 169.848 214.919 194.734C185.961 197.545 158.66 209.537 137 228.961C115.343 209.539 88.0463 197.547 59.0927 194.734C54.8023 169.848 57.4285 144.261 66.6848 120.765L137 159.833ZM91.3333 228.333V142.708L137 117.34" stroke="url(#paint0_linear_1345_521)" stroke-width="15" stroke-linecap="round" stroke-linejoin="round"/>
<defs>
<linearGradient id="paint0_linear_1345_521" x1="46.4407" y1="88.4354" x2="233.292" y2="128.323" gradientUnits="userSpaceOnUse">
<stop stop-color="#FF0089"/>
<stop offset="0.302083" stop-color="#9765D6"/>
<stop offset="0.552083" stop-color="#2F74DA"/>
<stop offset="0.802083" stop-color="#00EFFF"/>
<stop offset="1" stop-color="white"/>
</linearGradient>
</defs>
</svg>
