<svg width="311" height="559" viewBox="0 0 311 559" fill="none" xmlns="http://www.w3.org/2000/svg">
<circle cx="141.75" cy="468.5" r="14" fill="white"/>
<circle cx="105.75" cy="97.5" r="14" fill="#FF11BC"/>
<circle cx="191.75" cy="168.5" r="14" fill="#FF11BC"/>
<circle cx="141.75" cy="182.5" r="7" fill="#FF11BC"/>
<circle cx="179.75" cy="78.5" r="14" fill="#FF11BC"/>
<circle cx="180.25" cy="455" r="6.5" fill="white"/>
<circle cx="171.25" cy="489" r="6.5" fill="white"/>
<circle cx="148.25" cy="45" r="6.5" fill="#FF11BC"/>
<circle cx="203.25" cy="5" r="4.5" fill="#FF11BC"/>
<circle cx="157.25" cy="534" r="24.5" fill="white"/>
<circle cx="156.75" cy="432.5" r="8" fill="white"/>
<path d="M127.75 318C127.75 318 33.2485 213.258 10.75 195.258C108.249 217.758 170.749 144.258 302.25 195.258L186.75 318V370L127.75 433.5V318Z" fill="url(#paint0_linear_645_7751)"/>
<path d="M15.4688 136.398C12.4474 139.534 10.75 143.787 10.75 148.222V191.466C10.7509 195.901 12.4489 200.153 15.4706 203.288L118.807 310.545C121.829 313.68 123.527 317.933 123.528 322.367V432.5L187.972 365.611V322.367C187.973 317.933 189.671 313.68 192.693 310.545L296.029 203.288C299.051 200.153 300.749 195.901 300.75 191.466V148.222C300.75 143.787 299.053 139.534 296.031 136.398C293.01 133.262 288.912 131.5 284.639 131.5H26.8611C22.5882 131.5 18.4903 133.262 15.4688 136.398Z" stroke="url(#paint1_linear_645_7751)" stroke-width="20" stroke-linecap="round" stroke-linejoin="round"/>
<defs>
<linearGradient id="paint0_linear_645_7751" x1="141" y1="164.5" x2="134.5" y2="394" gradientUnits="userSpaceOnUse">
<stop stop-color="#FF00B8"/>
<stop offset="1" stop-color="white"/>
</linearGradient>
<linearGradient id="paint1_linear_645_7751" x1="155.75" y1="131.5" x2="155.75" y2="432.5" gradientUnits="userSpaceOnUse">
<stop stop-color="white"/>
<stop offset="1" stop-color="#11F1FF"/>
</linearGradient>
</defs>
</svg>
