<svg width="232" height="232" viewBox="0 0 232 232" fill="none" xmlns="http://www.w3.org/2000/svg">
<path d="M108.936 17.3642C113.203 14.4903 118.788 14.4903 123.055 17.3642L129.959 21.9704C132.286 23.5057 135.002 24.2537 137.756 24.0963L146.017 23.5845C151.137 23.2695 155.947 26.1041 158.236 30.7496L161.959 38.2691C163.201 40.7887 165.218 42.7965 167.661 44.0563L175.147 47.8751C179.724 50.1979 182.517 55.0796 182.207 60.2763L181.703 68.6619C181.547 71.4571 182.284 74.2523 183.797 76.575L188.374 83.5827C191.206 87.9133 191.206 93.5824 188.374 97.913L183.797 104.96C182.284 107.322 181.547 110.078 181.703 112.873L182.207 121.259C182.517 126.455 179.724 131.337 175.147 133.66L167.739 137.439C165.256 138.699 163.278 140.746 162.037 143.227L158.275 150.825C155.986 155.47 151.176 158.305 146.056 157.99L137.794 157.478C135.04 157.321 132.286 158.069 129.998 159.604L123.094 164.25C118.827 167.124 113.241 167.124 108.975 164.25L102.032 159.604C99.7044 158.069 96.9893 157.321 94.2353 157.478L85.9734 157.99C80.8534 158.305 76.0437 155.47 73.7552 150.825L70.0315 143.305C68.7903 140.786 66.7733 138.778 64.3297 137.518L56.8436 133.699C52.2666 131.377 49.4738 126.495 49.7841 121.298L50.2884 112.913C50.4435 110.117 49.7066 107.322 48.1938 104.999L43.6556 97.9523C40.8241 93.6218 40.8241 87.9526 43.6556 83.6221L48.1938 76.6144C49.7066 74.2523 50.4435 71.4964 50.2884 68.7012L49.7841 60.3157C49.4738 55.119 52.2666 50.2372 56.8436 47.9145L64.2521 44.135C66.7345 42.8359 68.7515 40.7887 69.9927 38.2691L73.7164 30.7496C76.0049 26.1041 80.8146 23.2695 85.9347 23.5845L94.1965 24.0963C96.9505 24.2537 99.7044 23.5057 101.993 21.9704L108.936 17.3642ZM147.026 90.7872C147.026 73.3861 133.14 59.2921 115.995 59.2921C98.8511 59.2921 84.965 73.3861 84.965 90.7872C84.965 108.188 98.8511 122.282 115.995 122.282C133.14 122.282 147.026 108.188 147.026 90.7872ZM42.0265 189.131L58.7442 148.778C58.8218 148.817 58.8606 148.856 58.8993 148.935L62.623 156.455C67.1612 165.588 76.5867 171.139 86.6716 170.549L94.9335 170.037C95.0111 170.037 95.1274 170.037 95.205 170.116L102.109 174.761C104.088 176.06 106.182 177.084 108.354 177.792L93.7699 212.949C92.8777 215.114 90.8995 216.571 88.611 216.768C86.3225 216.965 84.1116 215.902 82.8704 213.933L70.3806 194.524L48.6205 197.792C46.4096 198.107 44.1986 197.201 42.8023 195.43C41.4059 193.658 41.1344 191.217 41.9877 189.131H42.0265ZM138.221 212.91L123.637 177.792C125.809 177.084 127.903 176.1 129.882 174.761L136.786 170.116C136.863 170.076 136.941 170.037 137.057 170.037L145.319 170.549C155.404 171.139 164.83 165.588 169.368 156.455L173.092 148.935C173.13 148.856 173.169 148.817 173.247 148.778L190.003 189.131C190.857 191.217 190.546 193.619 189.189 195.43C187.831 197.241 185.581 198.146 183.37 197.792L161.61 194.524L149.121 213.894C147.879 215.862 145.668 216.925 143.38 216.728C141.091 216.531 139.113 215.035 138.221 212.91V212.91Z" fill="url(#paint0_linear_1726_10373)"/>
<defs>
<linearGradient id="paint0_linear_1726_10373" x1="50.3409" y1="62.2446" x2="189.238" y2="81.7923" gradientUnits="userSpaceOnUse">
<stop stop-color="#FF0089"/>
<stop offset="0.302083" stop-color="#9765D6"/>
<stop offset="0.552083" stop-color="#2F74DA"/>
<stop offset="0.802083" stop-color="#00EFFF"/>
<stop offset="1" stop-color="white"/>
</linearGradient>
</defs>
</svg>
