<svg width="232" height="253" viewBox="0 0 232 253" fill="none" xmlns="http://www.w3.org/2000/svg">
<path d="M158 151.7C163.117 151.7 168.113 150.143 172.323 147.235C176.533 144.327 179.758 140.206 181.569 135.42C183.38 130.634 183.692 125.411 182.462 120.444C181.233 115.477 178.52 111.002 174.685 107.614C170.85 104.227 166.075 102.086 160.995 101.479C155.914 100.871 150.769 101.824 146.243 104.211C141.717 106.599 138.025 110.307 135.659 114.844C133.292 119.381 132.362 124.53 132.993 129.608L91.4972 150.356C87.9375 146.923 83.4466 144.614 78.5838 143.715C73.721 142.817 68.7013 143.369 64.15 145.303C59.5987 147.236 55.717 150.467 52.9883 154.591C50.2596 158.715 48.8047 163.551 48.8047 168.496C48.8047 173.441 50.2596 178.277 52.9883 182.401C55.717 186.525 59.5987 189.755 64.15 191.689C68.7013 193.623 73.721 194.175 78.5838 193.276C83.4466 192.378 87.9375 190.068 91.4972 186.636L132.993 207.384C132.258 213.282 133.632 219.251 136.872 224.235C140.112 229.219 145.01 232.897 150.699 234.619C156.389 236.341 162.504 235.996 167.964 233.646C173.424 231.296 177.877 227.091 180.537 221.774C183.196 216.458 183.891 210.373 182.498 204.594C181.105 198.815 177.714 193.715 172.924 190.194C168.134 186.674 162.254 184.96 156.323 185.355C150.392 185.751 144.791 188.231 140.511 192.356L99.0152 171.608C99.2694 169.544 99.2694 167.456 99.0152 165.392L140.511 144.644C145.03 149.012 151.196 151.7 158 151.7Z" fill="url(#paint0_linear_1726_10388)"/>
<path d="M158 67.7001C163.117 67.7002 168.113 66.1427 172.323 63.2346C176.533 60.3265 179.758 56.2057 181.569 51.4201C183.38 46.6345 183.692 41.4109 182.462 36.444C181.233 31.477 178.52 27.0021 174.685 23.6143C170.85 20.2266 166.075 18.0864 160.995 17.4785C155.914 16.8706 150.769 17.8238 146.243 20.2113C141.717 22.5988 138.025 26.3074 135.659 30.844C133.292 35.3806 132.362 40.5302 132.993 45.6081L91.4972 66.3561C87.9375 62.9234 83.4466 60.614 78.5838 59.7154C73.721 58.8168 68.7013 59.3688 64.15 61.3027C59.5987 63.2365 55.717 66.4666 52.9883 70.5908C50.2596 74.7149 48.8047 79.5508 48.8047 84.4959C48.8047 89.441 50.2596 94.2768 52.9883 98.401C55.717 102.525 59.5987 105.755 64.15 107.689C68.7013 109.623 73.721 110.175 78.5838 109.276C83.4466 108.378 87.9375 106.068 91.4972 102.636L132.993 123.384C132.258 129.282 133.632 135.251 136.872 140.235C140.112 145.219 145.01 148.897 150.699 150.619C156.389 152.341 162.504 151.996 167.964 149.646C173.424 147.296 177.877 143.091 180.537 137.774C183.196 132.458 183.891 126.373 182.498 120.594C181.105 114.815 177.714 109.715 172.924 106.194C168.134 102.674 162.254 100.96 156.323 101.355C150.392 101.751 144.791 104.231 140.511 108.356L99.0152 87.6081C99.2694 85.5439 99.2694 83.4563 99.0152 81.3921L140.511 60.6441C145.03 65.0121 151.196 67.7001 158 67.7001Z" fill="url(#paint1_linear_1726_10388)"/>
<defs>
<linearGradient id="paint0_linear_1726_10388" x1="56.7773" y1="132.66" x2="180.076" y2="156.136" gradientUnits="userSpaceOnUse">
<stop stop-color="#FF0089"/>
<stop offset="0.302083" stop-color="#9765D6"/>
<stop offset="0.552083" stop-color="#2F74DA"/>
<stop offset="0.802083" stop-color="#00EFFF"/>
<stop offset="1" stop-color="white"/>
</linearGradient>
<linearGradient id="paint1_linear_1726_10388" x1="56.7773" y1="48.66" x2="180.076" y2="72.1362" gradientUnits="userSpaceOnUse">
<stop stop-color="#FF0089"/>
<stop offset="0.302083" stop-color="#9765D6"/>
<stop offset="0.552083" stop-color="#2F74DA"/>
<stop offset="0.802083" stop-color="#00EFFF"/>
<stop offset="1" stop-color="white"/>
</linearGradient>
</defs>
</svg>
