<svg width="232" height="232" viewBox="0 0 232 232" fill="none" xmlns="http://www.w3.org/2000/svg">
<path d="M174 87V116V87ZM174 116V145V116ZM174 116H203H174ZM174 116H145H174ZM125.667 67.6667C125.667 77.9217 121.593 87.7567 114.341 95.0081C107.09 102.26 97.255 106.333 87 106.333C76.745 106.333 66.9099 102.26 59.6585 95.0081C52.4071 87.7567 48.3333 77.9217 48.3333 67.6667C48.3333 57.4116 52.4071 47.5766 59.6585 40.3252C66.9099 33.0738 76.745 29 87 29C97.255 29 107.09 33.0738 114.341 40.3252C121.593 47.5766 125.667 57.4116 125.667 67.6667V67.6667ZM29 193.333C29 177.951 35.1107 163.198 45.9878 152.321C56.8649 141.444 71.6174 135.333 87 135.333C102.383 135.333 117.135 141.444 128.012 152.321C138.889 163.198 145 177.951 145 193.333V203H29V193.333Z" stroke="url(#paint0_linear_1726_10355)" stroke-width="12" stroke-linecap="round" stroke-linejoin="round"/>
<defs>
<linearGradient id="paint0_linear_1726_10355" x1="39.322" y1="69.6" x2="198.954" y2="99.9949" gradientUnits="userSpaceOnUse">
<stop stop-color="#FF0089"/>
<stop offset="0.302083" stop-color="#9765D6"/>
<stop offset="0.552083" stop-color="#2F74DA"/>
<stop offset="0.802083" stop-color="#00EFFF"/>
<stop offset="1" stop-color="white"/>
</linearGradient>
</defs>
</svg>
